<svg xmlns="http://www.w3.org/2000/svg" viewBox="0 0 400 300" width="400" height="300">
    <rect width="400" height="300" fill="#1b253b" rx="8" ry="8" />
    <pattern id="dots" x="0" y="0" width="16" height="16" patternUnits="userSpaceOnUse">
        <circle cx="2" cy="2" r="1.5" fill="#2a354d"/>
    </pattern>
    <rect x="40" y="30" width="120" height="60" fill="url(#dots)"/>
    <rect x="240" y="210" width="120" height="60" fill="url(#dots)"/>
    <path d="M 330 40 L 345 55 M 345 40 L 330 55" stroke="#e58319" stroke-width="4" stroke-linecap="round"/>
    <circle cx="80" cy="280" r="30" stroke="#e58319" stroke-width="4" fill="none"/>
    <g transform="translate(40, 60) rotate(-1)">
        <rect x="20" y="10" width="280" height="160" fill="none" stroke="#ffffff" stroke-width="4" rx="4"/>
        <rect x="50" y="40" width="180" height="20" fill="none" stroke="#ffffff" stroke-width="3" rx="2"/>
        <rect x="50" y="70" width="220" height="10" fill="none" stroke="#ffffff" stroke-width="3" rx="2"/>
        <rect x="50" y="90" width="200" height="10" fill="none" stroke="#ffffff" stroke-width="3" rx="2"/>
        <rect x="50" y="120" width="60" height="20" fill="none" stroke="#ffffff" stroke-width="3" rx="10"/>
    </g>
</svg>
